<svg xmlns="http://www.w3.org/2000/svg" width="1160" height="635" viewBox="0 0 1160 635">
<style>.title{font:600 22px -apple-system,BlinkMacSystemFont,sans-serif;fill:#e5e7eb} .sub{font:13px -apple-system,BlinkMacSystemFont,sans-serif;fill:#9ca3af} .line{font:16px ui-monospace,SFMono-Regular,Menlo,monospace;fill:#d1fae5;white-space:pre}</style>
<rect width="100%" height="100%" fill="#111827"/><rect x="0" y="0" width="100%" height="58" fill="#1f2937"/><circle cx="22" cy="28" r="7" fill="#ef4444"/><circle cx="44" cy="28" r="7" fill="#f59e0b"/><circle cx="66" cy="28" r="7" fill="#10b981"/><text x="94" y="35" class="title">GDB 记录：复位地址到 OpenSBI</text><text x="38" y="76" class="sub">由本次 GDB 原始输出渲染；完整文本保存在 gdb-transcript.txt</text><text x="38" y="103" class="line">pc             0x1000   0x1000</text><text x="38" y="128" class="line">sp             0x0  0x0</text><text x="38" y="153" class="line">=&gt; 0x1000:  auipc   t0,0x0</text><text x="38" y="178" class="line">   0x1004:  addi    a2,t0,40</text><text x="38" y="203" class="line">   0x1008:  csrr    a0,mhartid</text><text x="38" y="228" class="line">   0x100c:  ld  a1,32(t0)</text><text x="38" y="253" class="line">   0x1010:  ld  t0,24(t0)</text><text x="38" y="278" class="line">   0x1014:  jr  t0</text><text x="38" y="303" class="line">0x80200000 &lt;kern_entry&gt;:    0x00003117  0x00010113  0x3517a009  0x05130000</text><text x="38" y="328" class="line">0x0000000080000000 in ?? ()</text><text x="38" y="353" class="line">=== OPENSBI ===</text><text x="38" y="378" class="line">pc             0x80000000   0x80000000</text><text x="38" y="403" class="line">sp             0x0  0x0</text><text x="38" y="428" class="line">=&gt; 0x80000000:  add s0,a0,zero</text><text x="38" y="453" class="line">   0x80000004:  add s1,a1,zero</text><text x="38" y="478" class="line">   0x80000008:  add s2,a2,zero</text><text x="38" y="503" class="line">   0x8000000c:  jal 0x80000678</text><text x="38" y="528" class="line">   0x80000010:  add a6,a0,zero</text><text x="38" y="553" class="line">Breakpoint 1 at 0x80200000: file kern/init/entry.S, line 7.</text><text x="38" y="578" class="line">Breakpoint 1, kern_entry () at kern/init/entry.S:7</text><text x="38" y="603" class="line">7       la sp, bootstacktop</text></svg>